<?xml version="1.0" encoding="UTF-8"?>
<svg id="Calque_1" xmlns="http://www.w3.org/2000/svg" width="128" height="128" version="1.1" viewBox="0 0 128 128">
  <!-- Generator: Adobe Illustrator 30.3.0, SVG Export Plug-In . SVG Version: 2.1.1 Build 73)  -->
  <defs>
    <style>
      .st0 {
        fill: #ede8d8;
      }
    </style>
  </defs>
  <path class="st0" d="M118.2,46.8c-.5,0-.9.3-1.2.9-3,7.9-8.9,16.3-15.3,16.3s-6.6-4.1-6.6-10.5.7-15.6.7-19.5c0-10.5-6.9-17.7-18.8-17.7s-19,6.9-23.2,15.1h-.5c.3-2.6.9-8.3.9-10s-1.2-3.4-3.3-3.4h-9.6c-2.4,0-3.4.9-3.4,3.8v42.5c-3.2-1.3-6.7-2-10.4-2-14.6,0-26.5,11.1-26.5,24.7s11.9,24.7,26.5,24.7,26-10.6,26.5-23.8h0v-.6c0-.1,0-.2,0-.3s0-.2,0-.3c0,0,.1-13.2.1-13.7v-4.1c0-15.3,6-38.4,17.1-38.4s7.5,3.8,7.5,9.4-.7,12.7-.7,19.8c0,10.5,8.7,18.5,19.8,18.5,16.8,0,26.2-16.1,28.9-25.2.1-.4.3-.9.3-1.3,0-1.4-7.7-5-8.8-5h0ZM27.5,95.9c-5.9,0-10.7-4-10.7-8.9s4.8-8.9,10.7-8.9,10.5,3.8,10.7,8.6v.6c-.2,4.8-4.9,8.6-10.7,8.6h0Z"/>
</svg>