<svg class="footer-logo" viewBox="0 0 70 70" fill="none" xmlns="http://www.w3.org/2000/svg">
                    <circle cx="35" cy="35" r="35" fill="#36454F"/>
                    <path d="M60.8872 28.2608C60.6549 28.2608 60.4788 28.3805 60.3661 28.6692C59.0281 32.1552 56.4154 35.8735 53.5703 35.8735C51.5351 35.8735 50.6619 34.0707 50.6619 31.2256C50.6619 28.0847 50.9506 24.3101 50.9506 22.5707C50.9506 17.9228 47.8732 14.7256 42.6408 14.7256C37.4084 14.7256 34.2182 17.8031 32.3591 21.4087L32.1267 21.3523C32.2394 20.2467 32.5351 17.7467 32.5351 16.9932C32.5351 15.9439 32.014 15.4791 31.0844 15.4791H26.845C25.7957 15.4791 25.3309 15.8876 25.3309 17.1622V36.0002C23.9225 35.4369 22.3661 35.127 20.7394 35.127C14.2605 35.127 8.98584 40.0354 8.98584 46.0707C8.98584 52.1059 14.2605 57.0143 20.7394 57.0143C27.2182 57.0143 32.2464 52.3101 32.4718 46.458H32.4858V46.2045C32.4858 46.1552 32.4929 46.1129 32.4929 46.0636C32.4929 46.0143 32.4929 45.9721 32.4858 45.9228C32.4858 45.9228 32.5351 40.0707 32.5351 39.8735V38.0707C32.5351 31.2749 35.2112 21.0425 40.0915 21.0425C42.4154 21.0425 43.4013 22.7256 43.4013 25.2256C43.4013 28.1904 43.1126 30.8594 43.1126 34.0002C43.1126 38.6481 46.9506 42.1904 51.8872 42.1904C59.3239 42.1904 63.507 35.0425 64.6689 31.0354C64.7253 30.8594 64.7887 30.627 64.7887 30.458C64.7887 29.8171 61.3591 28.2467 60.8943 28.2467L60.8872 28.2608ZM20.7323 50.0073C18.1196 50.0073 15.9929 48.2467 15.9929 46.0777C15.9929 43.9087 18.1196 42.1481 20.7323 42.1481C23.345 42.1481 25.3872 43.8453 25.4647 45.958V46.2045C25.3872 48.3171 23.2957 50.0143 20.7323 50.0143V50.0073Z" fill="#EDE8D8"/>
                </svg>