            <svg width="175" height="43" viewBox="0 0 175 43" fill="none" xmlns="http://www.w3.org/2000/svg">
                <path d="M119.701 0C123.84 0.000181761 126.646 2.69225 126.646 6.57324C126.646 12.0872 121.17 16.4475 115.072 18.3467V20.1094C115.072 24.3928 117.479 27.2568 121.528 27.2568C125.936 27.2568 128.45 24.2862 129.585 21.7422V12.5723C129.585 11.7797 130.074 11.425 130.653 11.4248H134.213C134.924 11.4248 135.282 11.8682 135.282 12.5723C135.282 15.2169 135.062 19.2284 135.062 22.8906C135.062 25.1801 135.599 26.9014 137.689 26.9014C141.159 26.9008 143.518 19.9732 143.518 14.1104V12.6133C143.518 11.8208 143.87 11.4248 144.539 11.4248H148.146C148.857 11.4249 149.216 11.8628 149.216 12.5254V26.2393C149.526 26.2865 149.878 26.2861 150.236 26.2861C153.043 26.2861 154.901 24.6477 156.029 22.3643C156.71 20.7195 157.308 18.1275 157.308 15.7432C157.308 13.8914 157.039 11.9984 157.039 11.5547C157.039 10.756 160.508 8.77458 161.446 8.77441C161.667 8.77441 161.798 8.86313 161.978 9.08203C163.268 10.5788 165.944 13.0925 168.523 14.9443L168.512 14.9385C171.498 17.1926 173.988 19.4411 173.988 23.541C173.988 28.5226 170.297 31.7002 165.131 31.7002C161.793 31.7 158.896 29.8062 158.896 29.1436C158.897 28.4802 160.318 25.748 160.766 25.748C161.172 25.7481 162.952 26.8955 164.642 26.8955C166.821 26.8955 168.159 25.263 168.159 23.5C168.159 21.6069 166.959 20.4176 165.042 18.915C163.394 17.5898 162.461 16.9737 160.992 15.6484L160.861 15.7373C160.945 16.2224 160.992 16.9271 160.992 17.501C160.992 19.6131 160.222 22.5532 159.272 24.5469C157.642 28.3925 154.387 31.1318 149.646 31.1318H149.197C148.976 38.4977 145.1 42.9941 137.934 42.9941C133.748 42.994 130.721 40.7465 130.72 39.5986C130.72 38.8058 132.547 36.2021 133.258 36.2021C133.485 36.2022 133.658 36.2912 134.016 36.5986C134.995 37.3027 136.417 38.1426 138.155 38.1426C141.141 38.1424 144.031 36.2491 144.031 30.4277V26.5469L143.853 26.499C142.7 29.191 140.072 31.7061 136.064 31.7061C133.216 31.706 131.162 30.3209 130.194 27.9248C127.961 30.2381 124.86 31.7061 120.62 31.7061C116.38 31.706 113.191 29.8894 111.399 26.8604C109.757 29.3274 107.064 31.706 103.176 31.7061C99.9748 31.7061 97.6574 30.2031 97.6572 27.6475V27.2031L97.4785 27.1621C96.3677 29.5878 93.8769 31.7061 90.001 31.7061C86.9731 31.706 84.5661 30.2855 83.085 27.9189C81.3232 30.0251 78.7137 31.706 75.0469 31.7061C71.7384 31.7061 69.1585 30.2266 67.8506 27.7773C66.0888 29.9486 63.4428 31.706 59.6924 31.7061C54.843 31.7061 51.5459 28.5283 51.5459 23.7656V15.874H50.3877C49.7188 15.874 49.4082 15.6547 49.4082 14.9922V12.5254C49.4082 12.0403 49.6289 11.6847 50.208 11.6846H51.5459V6.65625C51.5459 5.91079 51.9463 5.4668 52.6152 5.4668H56.001C56.7117 5.4668 57.0703 5.90487 57.0703 6.65625V11.7734C58.4977 11.732 60.1878 11.6846 61.2568 11.6846C61.6569 11.6846 61.9677 11.9037 61.9678 12.3887V15.0811C61.9677 15.6962 61.6986 15.874 61.209 15.874C60.1877 15.874 58.5394 15.832 57.0703 15.832V21.5654C57.0704 24.9197 57.9602 26.9013 60.8564 26.9014C64.0454 26.9014 66.076 23.6659 66.9062 21.5479V15.874H65.748C65.0792 15.874 64.7686 15.6547 64.7686 14.9922V12.5254C64.7686 12.0404 64.9893 11.6847 65.5684 11.6846H66.9062V6.65625C66.9062 5.91079 67.3067 5.4668 67.9756 5.4668H71.3613C72.072 5.4668 72.4307 5.90487 72.4307 6.65625V11.7734C73.858 11.732 75.5482 11.6846 76.6172 11.6846C77.0173 11.6846 77.328 11.9037 77.3281 12.3887V15.0811C77.3281 15.6962 77.059 15.874 76.5693 15.874C75.5481 15.874 73.8997 15.832 72.4307 15.832V21.5654C72.4307 24.9197 73.3266 26.9012 76.2168 26.9014C78.707 26.9014 80.4868 24.9378 81.5439 23.0684C81.4962 22.607 81.4668 22.1393 81.4668 21.6543C81.4668 15.4836 85.474 10.8507 90.9922 10.8506C93.799 10.8506 95.7581 11.8622 97.1377 13.0986L97.2695 13.0518V12.4775C97.2696 11.8151 97.711 11.4191 98.29 11.4189H101.719C102.387 11.4191 102.787 11.8151 102.787 12.5664C102.787 13.4007 102.298 19.7966 102.298 23.2812C102.298 25.2631 103.099 26.8955 104.657 26.8955C106.897 26.8951 108.789 24.0199 109.822 21.5293C109.792 21.1212 109.775 20.7071 109.775 20.2812V14.8145C109.775 6.61446 113.066 0 119.701 0ZM37.0332 10.8447C43.3996 10.8447 47.5391 15.3413 47.5391 21.0742C47.539 26.322 43.7996 31.7002 36.4121 31.7002C32.6201 31.7001 29.6462 30.1439 27.8486 27.6416C26.1824 29.8129 23.6971 31.7002 20.3408 31.7002C16.5607 31.7 13.623 29.0074 13.623 25.4814C13.6231 23.1033 13.8437 21.0742 13.8438 18.8262C13.8438 16.9271 13.0852 15.6486 11.3057 15.6484C7.56707 15.6484 5.51855 23.4113 5.51855 28.5703V29.9365C5.51855 30.7293 5.2075 31.1729 4.40723 31.1729H1.11035C0.310431 31.1727 0 30.7765 0 29.9365V12.6963C5.5288e-05 11.7263 0.358273 11.419 1.1582 11.4189H4.40723C5.11792 11.4189 5.51855 11.7736 5.51855 12.5664C5.51854 13.1404 5.29759 15.0339 5.20801 15.874L5.38672 15.915C6.8081 13.1817 9.2573 10.8447 13.2646 10.8447C17.2718 10.8449 19.6309 13.2708 19.6309 16.7969C19.6308 18.1222 19.4092 20.9851 19.4092 23.3691C19.4092 25.5286 20.079 26.8955 21.6377 26.8955C23.3574 26.8952 24.9695 25.1326 26.0742 23.0859C25.9966 22.5476 25.9492 21.9967 25.9492 21.4287C25.9494 15.3411 30.3984 10.8449 37.0332 10.8447ZM36.9443 15.252C33.6059 15.252 31.7363 18.2935 31.7363 21.3818C31.7364 24.7362 33.695 27.2918 36.7227 27.292C39.9715 27.292 41.71 24.3812 41.71 20.8965C41.7099 17.7669 40.1034 15.2521 36.9443 15.252ZM92.8975 15.6484C89.6486 15.6485 87.2002 18.2524 87.2002 21.9561C87.2004 24.9138 88.8423 26.8953 91.1592 26.8955H91.166C95.3461 26.8951 97.2637 20.9444 97.2637 17.5898C96.326 16.7083 94.725 15.6484 92.8975 15.6484ZM119.647 4.44922C116.661 4.44922 115.24 9.38913 115.061 13.708C117.909 12.5188 121.737 9.87425 121.737 6.69727C121.737 5.41953 121.027 4.44943 119.647 4.44922Z" fill="#36454F"/>
            </svg>